<?xml version="1.0" encoding="UTF-8"?>
<svg width="151px" height="20px" viewBox="0 0 151 20" version="1.1" xmlns="http://www.w3.org/2000/svg" xmlns:xlink="http://www.w3.org/1999/xlink">
    <!-- Generator: Sketch 52.3 (67297) - http://www.bohemiancoding.com/sketch -->
    <title>Group-3</title>
    <desc>Created with Sketch.</desc>
    <g id="Admin-portal" stroke="none" stroke-width="1" fill="none" fill-rule="evenodd">
        <g id="Admin_Landing-page" transform="translate(-80.000000, -30.000000)">
            <g id="Group-3" transform="translate(80.000000, 30.000000)">
                <g id="Group-4">
                    <g id="GO!-MANAGE-LOGO" transform="translate(43.225806, 0.000000)" fill="#ADADAD" fill-rule="nonzero">
                        <g id="Group-2">
                            <path d="M27.5571685,0.110821918 L25.3319566,10.1231507 L27.7022791,10.1231507 L30.5079337,0.110821918 L27.5571685,0.110821918 Z M26.0032297,11.850274 C24.8180684,11.850274 23.7941109,12.9006849 23.7919288,14.0905479 C23.7902922,14.9316438 24.416832,15.5382192 25.3226826,15.5382192 C26.4377434,15.5382192 27.4622465,14.5110959 27.4641558,13.3445205 C27.4657924,12.480411 26.8629831,11.850274 26.0032297,11.850274 Z" id="Fill-1"></path>
                            <path d="M1.7585666,14.4740548 C2.30545921,14.942274 2.95627505,15.4184384 4.35337428,15.4995342 C6.63804884,15.632137 8.00732609,14.2570685 9.16657477,12.4746027 L8.14998187,15.4444658 C8.14998187,15.4628219 10.4736617,15.4447397 10.4736617,15.4447397 L12.5668557,7.97816438 L7.24494961,7.97816438 L6.66123381,10.0940548 L8.42901984,10.0940548 C8.42901984,10.0940548 8.08670053,11.5269315 5.70655843,13.1184384 C4.81952862,13.711589 3.09756701,14.3050137 1.7585666,14.4740548" id="Fill-3"></path>
                            <path d="M8.33900759,0.0969041096 C6.34319053,0.0969041096 4.54294553,0.854438356 3.09483936,2.32457534 C1.25722564,4.15087671 0.119798122,6.89060274 0.0232395263,9.67443836 C-0.0307678236,11.2149863 0.28918481,12.2360822 0.89199412,13.1410137 C1.74656497,13.0264932 2.7429733,12.7114247 3.70146737,12.3873151 C3.07710968,11.7432055 2.81089163,11.1352603 2.86298963,9.63005479 C2.92136121,7.95936986 3.5388998,6.13334247 4.49712111,4.72978082 C5.5022579,3.23772603 6.65714234,2.54731507 8.05451433,2.54731507 C9.69546492,2.54731507 10.5503085,3.46019178 10.5557638,5.21991781 L13.084017,5.21991781 L13.0921999,4.9749863 C13.2007601,1.85663014 11.5098937,0.0969041096 8.33900759,0.0969041096" id="Fill-5"></path>
                            <path d="M19.4597483,4.17920548 C17.7456969,4.17920548 16.4601583,4.67756164 15.4001958,5.7649589 C14.1372967,7.05619178 13.3250043,9.14057534 13.3250043,11.1112603 C13.3250043,13.9205753 14.9714102,15.5515342 17.8586213,15.5515342 C19.5729455,15.5515342 20.9484964,14.9622192 22.0084588,13.784411 C23.1813457,12.4931781 23.9030803,10.5222192 23.9030803,8.64194521 C23.9030803,5.83290411 22.2790411,4.17920548 19.4597483,4.17920548 M19.2570844,6.37673973 C20.4296985,6.37673973 21.1061542,7.19235616 21.1061542,8.66468493 C21.1061542,9.68413699 20.790293,10.8624932 20.249674,11.813726 C19.6403183,12.8786575 18.9412232,13.3764658 18.0162791,13.3764658 C16.8210256,13.3764658 16.1219304,12.5608493 16.1219304,11.1564658 C16.1219304,10.1370137 16.4601583,8.86824658 16.9789561,7.96249315 C17.5877663,6.87482192 18.3097736,6.37673973 19.2570844,6.37673973" id="Fill-7"></path>
                            <polygon id="Fill-9" points="41.6959108 0.110821918 42.5114764 12.4026027 49.3104016 0.110821918 53.4122326 0.110821918 49.6276266 15.2935616 47.1119206 15.2935616 50.1036005 3.22945205 43.3725935 15.2935616 40.3588198 15.2935616 39.4974298 3.22945205 36.483656 15.2935616 33.96795 15.2935616 37.7299165 0.110821918"></polygon>
                            <path d="M59.4413076,10.1945753 C56.2685122,10.7866301 55.3847556,11.2416986 55.3847556,12.2890959 C55.3847556,12.9490959 55.9057356,13.3586849 56.7668528,13.3586849 C57.5603244,13.3586849 58.2629655,13.0173151 58.6933877,12.4027945 C58.9200549,12.0838904 59.078531,11.6743014 59.3051982,10.7408767 L59.4413076,10.1945753 Z M53.9797462,7.62252055 C54.7047539,5.41457534 56.3817094,4.27621918 58.8974154,4.27621918 C61.2088209,4.27621918 62.6820214,5.32361644 62.6820214,6.96224658 C62.6820214,7.46306849 62.5911909,8.07758904 62.4100753,8.80635616 L61.3902092,12.8808767 C61.2088209,13.6773151 61.1179904,14.2463562 61.1179904,14.7471781 L61.1179904,15.2934795 L58.6933877,15.2934795 C58.6933877,14.6107397 58.7160271,14.4512877 58.8065849,14.0644384 C57.9910194,15.0430685 57.0840777,15.4756712 55.8378172,15.4756712 C53.8662762,15.4756712 52.574464,14.3830685 52.574464,12.6986849 C52.574464,11.1507397 53.5487784,10.0353973 55.4753134,9.42087671 C56.5857372,9.05676712 57.0161594,8.94279452 59.8943693,8.37375342 L59.9622876,8.10032877 C60.0304787,7.80443836 60.0531182,7.69073973 60.0531182,7.53128767 C60.0531182,6.87128767 59.509226,6.48443836 58.557551,6.48443836 C57.5376849,6.48443836 56.9029622,6.82580822 56.5404583,7.62252055 L53.9797462,7.62252055 Z" id="Fill-11"></path>
                            <path d="M68.3231982,4.52676712 C68.3231982,5.14128767 68.2779193,5.43717808 68.1420826,6.07443836 C69.1163971,4.86813699 70.2041815,4.27635616 71.4280753,4.27635616 C73.1050308,4.27635616 74.2836457,5.39169863 74.2836457,6.96238356 C74.2836457,7.53142466 74.1701757,8.1689589 73.9205963,9.21580822 L72.4023897,15.2936164 L69.7055682,15.2936164 L71.0882109,9.67115068 C71.2693264,8.98813699 71.360157,8.41909589 71.360157,8.03224658 C71.360157,7.25827397 70.7709859,6.7349863 69.9322354,6.7349863 C68.6857021,6.7349863 67.9380549,7.62265753 67.3941627,9.76210959 L66.0341594,15.2936164 L63.3149712,15.2936164 L65.0372056,8.35087671 C65.5810978,6.25663014 65.7169344,5.55115068 65.694295,4.79991781 L65.694295,4.52676712 L68.3231982,4.52676712 Z" id="Fill-13"></path>
                            <path d="M81.762709,10.1945753 C78.5899136,10.7866301 77.706157,11.2416986 77.706157,12.2890959 C77.706157,12.9490959 78.227137,13.3586849 79.0882541,13.3586849 C79.8817258,13.3586849 80.5843668,13.0173151 81.0147891,12.4027945 C81.2414563,12.0838904 81.3999324,11.6743014 81.6265996,10.7408767 L81.762709,10.1945753 Z M76.3011476,7.62252055 C77.0261553,5.41457534 78.7031108,4.27621918 81.2188168,4.27621918 C83.5302223,4.27621918 85.0034228,5.32361644 85.0034228,6.96224658 C85.0034228,7.46306849 84.9125922,8.07758904 84.7314767,8.80635616 L83.7116106,12.8808767 C83.5302223,13.6773151 83.4393918,14.2463562 83.4393918,14.7471781 L83.4393918,15.2934795 L81.0147891,15.2934795 C81.0147891,14.6107397 81.0374285,14.4512877 81.1279863,14.0644384 C80.3124207,15.0430685 79.4054791,15.4756712 78.1592186,15.4756712 C76.1876776,15.4756712 74.8958654,14.3830685 74.8958654,12.6986849 C74.8958654,11.1507397 75.8701798,10.0353973 77.7967147,9.42087671 C78.9071386,9.05676712 79.3375608,8.94279452 82.2157707,8.37375342 L82.283689,8.10032877 C82.3518801,7.80443836 82.3745196,7.69073973 82.3745196,7.53128767 C82.3745196,6.87128767 81.8306274,6.48443836 80.8789524,6.48443836 C79.8590863,6.48443836 79.2243636,6.82580822 78.8618597,7.62252055 L76.3011476,7.62252055 Z" id="Fill-15"></path>
                            <path d="M89.7447771,8.16893151 C89.7447771,9.05660274 90.3792271,9.62564384 91.4217326,9.62564384 C92.5324292,9.62564384 93.3253553,8.87441096 93.3253553,7.78180822 C93.3253553,6.91687671 92.6682659,6.30235616 91.6939515,6.30235616 C90.5832549,6.30235616 89.7447771,7.09906849 89.7447771,8.16893151 Z M86.5493423,16.5681096 C86.5493423,17.3420822 87.6144872,17.7976986 89.3822733,17.7976986 C91.1497865,17.7976986 92.2152042,17.2511233 92.2152042,16.3634521 C92.2152042,15.5212603 91.3990932,15.1113973 89.6994982,15.1113973 C87.705045,15.1113973 86.5493423,15.6576986 86.5493423,16.5681096 Z M97.6085746,6.71221918 L95.3874541,6.71221918 C95.5691152,7.12180822 95.659673,7.57715068 95.659673,8.0549589 C95.659673,9.37523288 94.8664742,10.5818082 93.6199409,11.1281096 C92.8949331,11.4694795 92.1470131,11.5604384 90.5153365,11.5604384 C89.7221377,11.7198904 89.3369944,11.9703014 89.3369944,12.3116712 C89.3369944,12.5848219 89.5860283,12.7212603 90.4018666,12.8352329 C92.1696526,13.0626301 92.6909053,13.153863 93.2347976,13.3585205 C94.4131397,13.7911233 94.9570319,14.5653699 94.9570319,15.7716712 C94.9570319,18.2300274 92.7588237,19.8234521 89.3822733,19.8234521 C86.1415595,19.8234521 84.1926579,18.7081096 84.1926579,16.8867397 C84.1926579,15.5667397 85.1443329,14.6563288 86.957125,14.2009863 C86.4587845,13.8823562 86.2773962,13.5861918 86.2773962,13.1311233 C86.2773962,12.2661918 87.0479556,11.674411 88.9062994,11.1508493 C87.8867061,10.5363288 87.4104595,9.67112329 87.4104595,8.44180822 C87.4104595,5.98345205 89.2688033,4.27632877 91.9432581,4.27632877 C92.7361842,4.27632877 93.2800764,4.39030137 94.1864725,4.73167123 L98.1071879,4.73167123 L97.6085746,6.71221918 Z" id="Fill-17"></path>
                            <path d="M105.200999,8.32813699 C105.200999,7.09909589 104.543909,6.37032877 103.433486,6.37032877 C102.300149,6.37032877 101.371114,7.14457534 100.827222,8.53306849 L105.200999,8.53306849 L105.200999,8.32813699 Z M100.328608,10.5590959 C100.305969,10.8322466 100.305969,10.9459452 100.305969,11.1053973 C100.305969,12.5393699 101.053889,13.3812877 102.322789,13.3812877 C103.342928,13.3812877 104.000017,12.9944384 104.611828,12.0158082 L106.945873,12.2662192 C105.835449,14.588137 104.339882,15.5895068 101.960285,15.5895068 C99.1726329,15.5895068 97.4956774,13.9048493 97.4956774,11.1053973 C97.4956774,9.19306849 98.2662368,7.21279452 99.5127701,5.89252055 C100.577915,4.77717808 101.982924,4.18539726 103.524043,4.18539726 C106.107395,4.18539726 107.716705,5.82430137 107.716705,8.44183562 C107.716705,9.19306849 107.625874,9.89854795 107.39948,10.5590959 L100.328608,10.5590959 Z" id="Fill-19"></path>
                        </g>
                    </g>
                    <g id="def/assets/mtu_logo_dark_gray_background">
                        <path d="M4.06394342,1.14832234 C4.23809863,0.900093773 4.44599641,0.69323663 4.68545982,0.52669011 C4.93036559,0.356961172 5.20792545,0.230725275 5.51813941,0.147982418 C5.80876092,0.0694827839 6.13965581,0.0312937729 6.71219106,0.0312937729 L20.615219,0.0312937729 L16.6216224,13.8620806 C16.2178,15.2602227 15.2338231,15.9805099 13.746973,15.9805099 L2.05789312,15.9805099 C1.44181907,15.9805099 1.17405544,15.9211048 0.930238149,15.8118418 C0.707101789,15.7131868 0.52750423,15.5720996 0.392533944,15.3991883 C0.236882727,15.1976352 0.143274302,14.957893 0.117151021,14.6852659 C0.0942931501,14.4487062 0.114974081,14.2121465 0.270625298,13.6732571 L3.53168157,2.37991795 C3.71998689,1.72964396 3.86584188,1.4294359 4.06394342,1.14832234" id="Fill-1" fill="#C6C7C9"></path>
                        <path d="M4.06394342,1.14832234 C4.23809863,0.900093773 4.44599641,0.69323663 4.68545982,0.52669011 C4.93036559,0.356961172 5.20792545,0.230725275 5.51813941,0.147982418 C5.80876092,0.0694827839 6.13965581,0.0312937729 6.71219106,0.0312937729 L20.615219,0.0312937729 L16.6216224,13.8620806 C16.2178,15.2602227 15.2338231,15.9805099 13.746973,15.9805099 L2.05789312,15.9805099 C1.44181907,15.9805099 1.17405544,15.9211048 0.930238149,15.8118418 C0.707101789,15.7131868 0.52750423,15.5720996 0.392533944,15.3991883 C0.236882727,15.1976352 0.143274302,14.957893 0.117151021,14.6852659 C0.0942931501,14.4487062 0.114974081,14.2121465 0.270625298,13.6732571 L3.53168157,2.37991795 C3.71998689,1.72964396 3.86584188,1.4294359 4.06394342,1.14832234 Z" id="Stroke-3" stroke="#D7D7D7" stroke-width="0.059"></path>
                        <path d="M22.2370394,1.14832234 C22.4111946,0.900093773 22.6190924,0.69323663 22.8585558,0.52669011 C23.1034616,0.356961172 23.3810214,0.230725275 23.6912354,0.147982418 C23.9818569,0.0694827839 24.3116633,0.0312937729 24.885287,0.0312937729 L38.788315,0.0312937729 L34.7947184,13.8620806 C34.390896,15.2602227 33.4069191,15.9805099 31.9211574,15.9805099 L20.2309891,15.9805099 C19.614915,15.9805099 19.3482399,15.9211048 19.1033341,15.8118418 C18.8812862,15.7131868 18.7006002,15.5720996 18.5656299,15.3991883 C18.4099787,15.1976352 18.3163703,14.957893 18.290247,14.6852659 C18.2673891,14.4487062 18.28807,14.2121465 18.4437213,13.6732571 L21.7047775,2.37991795 C21.8919944,1.72964396 22.0378494,1.4294359 22.2370394,1.14832234" id="Fill-5" fill="#C6C7C9"></path>
                        <path d="M22.2370394,1.14832234 C22.4111946,0.900093773 22.6190924,0.69323663 22.8585558,0.52669011 C23.1034616,0.356961172 23.3810214,0.230725275 23.6912354,0.147982418 C23.9818569,0.0694827839 24.3116633,0.0312937729 24.885287,0.0312937729 L38.788315,0.0312937729 L34.7947184,13.8620806 C34.390896,15.2602227 33.4069191,15.9805099 31.9211574,15.9805099 L20.2309891,15.9805099 C19.614915,15.9805099 19.3482399,15.9211048 19.1033341,15.8118418 C18.8812862,15.7131868 18.7006002,15.5720996 18.5656299,15.3991883 C18.4099787,15.1976352 18.3163703,14.957893 18.290247,14.6852659 C18.2673891,14.4487062 18.28807,14.2121465 18.4437213,13.6732571 L21.7047775,2.37991795 C21.8919944,1.72964396 22.0378494,1.4294359 22.2370394,1.14832234 Z" id="Stroke-7" stroke="#D7D7D7" stroke-width="0.059"></path>
                        <path d="M0.929367373,13.8831906 L4.21328152,2.51029099 C4.36566732,1.98307048 4.47233739,1.75924044 4.6171039,1.54283604 C4.75969348,1.33067487 4.93058328,1.15776352 5.1297733,1.02410198 C5.31372474,0.901048498 5.52053405,0.809819194 5.75237817,0.74935326 C5.98422229,0.688887326 6.27702073,0.659184762 6.72002804,0.659184762 L19.7141835,0.659184762 L15.9513425,13.6922456 C15.6204476,14.8357943 14.8737572,15.3524067 13.6982095,15.3524067 L2.0624647,15.3524067 C1.65428843,15.3524067 1.47251393,15.3248258 1.32230506,15.2696639 C1.17209619,15.2166236 1.05345296,15.1360023 0.967463825,15.0299218 C0.8738554,14.9153547 0.819431898,14.7710851 0.806370257,14.5992346 C0.795485557,14.4464785 0.810724137,14.2947833 0.929367373,13.8831906" id="Fill-9" fill="#00367B"></path>
                        <path d="M0.929367373,13.8831906 L4.21328152,2.51029099 C4.36566732,1.98307048 4.47233739,1.75924044 4.6171039,1.54283604 C4.75969348,1.33067487 4.93058328,1.15776352 5.1297733,1.02410198 C5.31372474,0.901048498 5.52053405,0.809819194 5.75237817,0.74935326 C5.98422229,0.688887326 6.27702073,0.659184762 6.72002804,0.659184762 L19.7141835,0.659184762 L15.9513425,13.6922456 C15.6204476,14.8357943 14.8737572,15.3524067 13.6982095,15.3524067 L2.0624647,15.3524067 C1.65428843,15.3524067 1.47251393,15.3248258 1.32230506,15.2696639 C1.17209619,15.2166236 1.05345296,15.1360023 0.967463825,15.0299218 C0.8738554,14.9153547 0.819431898,14.7710851 0.806370257,14.5992346 C0.795485557,14.4464785 0.810724137,14.2947833 0.929367373,13.8831906 Z" id="Stroke-11" stroke="#00367B" stroke-width="0.059"></path>
                        <path d="M19.1022456,13.8831906 L22.3861598,2.51029099 C22.5385456,1.98307048 22.6441272,1.75924044 22.7899822,1.54283604 C22.9325718,1.33067487 23.1034616,1.15776352 23.3026516,1.02410198 C23.486603,0.901048498 23.6934123,0.809819194 23.9252564,0.74935326 C24.1571006,0.688887326 24.449899,0.659184762 24.8929063,0.659184762 L37.8881502,0.659184762 L34.1242208,13.6922456 C33.7944144,14.8357943 33.0466355,15.3524067 31.8710878,15.3524067 L20.235343,15.3524067 C19.8271667,15.3524067 19.6453922,15.3248258 19.4951833,15.2696639 C19.3449745,15.2166236 19.2263312,15.1360023 19.1403421,15.0299218 C19.0467337,14.9153547 18.9923102,14.7710851 18.980337,14.5992346 C18.9683638,14.4464785 18.9836024,14.2947833 19.1022456,13.8831906" id="Fill-13" fill="#EC1B2E"></path>
                        <path d="M19.1022456,13.8831906 L22.3861598,2.51029099 C22.5385456,1.98307048 22.6441272,1.75924044 22.7899822,1.54283604 C22.9325718,1.33067487 23.1034616,1.15776352 23.3026516,1.02410198 C23.486603,0.901048498 23.6934123,0.809819194 23.9252564,0.74935326 C24.1571006,0.688887326 24.449899,0.659184762 24.8929063,0.659184762 L37.8881502,0.659184762 L34.1242208,13.6922456 C33.7944144,14.8357943 33.0466355,15.3524067 31.8710878,15.3524067 L20.235343,15.3524067 C19.8271667,15.3524067 19.6453922,15.3248258 19.4951833,15.2696639 C19.3449745,15.2166236 19.2263312,15.1360023 19.1403421,15.0299218 C19.0467337,14.9153547 18.9923102,14.7710851 18.980337,14.5992346 C18.9683638,14.4464785 18.9836024,14.2947833 19.1022456,13.8831906 Z" id="Stroke-15" stroke="#EC1B2E" stroke-width="0.059"></path>
                        <path d="M3.97000846,11.1875768 L3.35502288,13.3166142 L2.17403288,13.3166142 L2.81623021,11.0878611 C2.91745792,10.7377952 3.11773641,10.5500325 3.50958563,10.5500325 L7.85040419,10.5500325 C8.24334188,10.5510933 8.36742746,10.7940179 8.27055363,11.1313541 L7.64141794,13.3166142 L6.45607406,13.3166142 L7.06997116,11.1875768 L6.11320599,11.1875768 L5.49930888,13.3166142 L4.31287653,13.3166142 L4.92677363,11.1875768 L3.97000846,11.1875768 Z" id="Fill-17" fill="#FEFEFE"></path>
                        <path d="M11.8165714,12.7360352 L12.2628441,11.1872586 L10.5811579,11.1872586 L10.1501237,12.6798125 L11.1471623,12.6798125 L10.9610339,13.3205392 L9.36860222,13.3205392 C8.97566453,13.3205392 8.85049047,13.0776147 8.94845278,12.7392176 L9.39799091,11.1872586 L8.65021198,11.1872586 L8.83416342,10.5507751 L9.58303082,10.5507751 L9.70602793,10.1232703 L10.9925995,9.76471795 L10.7651093,10.5507751 L13.6386702,10.5507751 L13.0225962,12.6798125 L13.9815383,12.6798125 L14.5965239,10.5507751 L15.7796908,10.5507751 L15.136405,12.7795282 C15.0362658,13.1295941 14.8348988,13.3173568 14.4430496,13.3173568 L12.2367208,13.3173568 C11.8437831,13.316296 11.7196975,13.0733714 11.8165714,12.7360352" id="Fill-19" fill="#FEFEFE"></path>
                    </g>
                </g>
            </g>
        </g>
    </g>
</svg>